<?xml version="1.0" encoding="utf-8"?>
<!-- Generator: Adobe Illustrator 20.1.0, SVG Export Plug-In . SVG Version: 6.00 Build 0)  -->
<svg version="1.1" id="Layer_1" xmlns="http://www.w3.org/2000/svg" xmlns:xlink="http://www.w3.org/1999/xlink" x="0px" y="0px"
	 width="604.4px" height="78.9px" viewBox="0 0 604.4 78.9" style="enable-background:new 0 0 604.4 78.9;" xml:space="preserve">
<style type="text/css">
	.st0{fill:#F7C241;}
</style>
<g>
	<path class="st0" d="M5.4,59.9c-0.5-1-0.8-2.1-0.8-3.4c0-1.5,0.3-2.7,1-3.7c1.5-2.4,3.6-4.3,6-5.8c1-0.7,1.5-1.3,1.5-1.9
		c0-0.4-0.1-0.7-0.3-1.1c-0.6-1.1-1.3-2.5-2.1-4.3l-1.1-2.2c-0.4-0.9-0.6-2-0.6-3.2c0-0.8,0.1-1.7,0.2-2.5c0.3-2.6,1.8-4.5,4.4-5.7
		c1.7-0.8,3.2-1.2,4.5-1.2c1.1,0,2.1,0.2,2.9,0.7c0.5,0.2,0.8,0.8,0.8,1.7c0,0.7-0.1,1.6-0.4,2.7c-0.3,1.3-1.3,3.3-3,5.9
		c-0.1,0.1-0.3,0.4-0.5,0.7c-0.2,0.3-0.4,0.6-0.5,0.9c-0.1,0.3,0,0.6,0.1,0.8l2.4,4.6c2.5-0.8,4.7-2,6.6-3.4
		c1.9-1.5,2.6-1.9,2.2-1.4c-0.5,0.6,1-1.4,4.4-5.7c0.3-0.4,0.6-0.7,0.9-0.9c0.3-0.2,0.6-0.2,0.8,0c0.1,0.1,0.2,0.3,0.2,0.4
		c0,0.2-0.1,0.5-0.3,0.9c-0.2,0.4-0.3,0.6-0.4,0.8c-0.4,0.9-1.3,2.1-2.7,3.6c-1.4,1.5-3.1,3.1-5.1,4.6c-2,1.5-4.1,2.7-6.3,3.4
		c0,0.4,0.1,1.2,0.3,2.3c0.1,1.1,0.2,2.1,0.2,3c0,1.9-0.3,3.5-0.9,4.7c-0.8,1.9-2.2,3.5-4.3,4.9c-2.1,1.4-4.2,2.1-6.1,2.1
		c-0.7,0-1.3-0.1-1.9-0.3C6.7,61.6,5.9,60.9,5.4,59.9z M12,58.6c0.8-0.9,1.4-1.7,1.7-2.4c0-0.1,0.2-0.6,0.4-1.7c0.3-1,0.4-2,0.4-3
		c0-1.2-0.2-2.4-0.7-3.7c-4.1,2-6.1,4.4-6.1,7.4c0,0.5,0.1,1.1,0.2,1.8c0,0.1,0.1,0.5,0.2,1c0.1,0.6,0.3,1,0.6,1.3
		c0.3,0.3,0.7,0.5,1.3,0.5C10.5,59.9,11.2,59.5,12,58.6z M18.5,31.1c0.5-1,0.7-2,0.8-3c0-0.4,0-0.8-0.1-1c-0.1-0.2-0.3-0.4-0.6-0.4
		l-0.3-0.1c-0.3,0-0.6,0.1-0.9,0.4c-0.3,0.2-0.6,0.5-0.9,0.8c-0.5,0.5-0.7,1-0.8,1.5c0,1.1,0,2,0,2.8c0.1,0.8,0.3,1.7,0.6,2.6
		C17.3,33.4,18,32.1,18.5,31.1z"/>
	<path class="st0" d="M23.1,51.5c0.1-6,2-11.6,5.8-16.9c1.1-1.5,2.8-2.9,5.4-4.1c2.5-1.2,4.7-1.9,6.4-1.9l0.8,0.1
		c2,0.3,3.3,1.4,4.1,3.2c0.2,0.4,0.6,1.2,0.9,2.2c0.3-0.3,0.7-0.7,1.2-1.3c0.9-1,1.7-1.7,2.2-1.9c0.5-0.2,1-0.4,1.5-0.4
		c0.8,0,1.2,0.4,1.2,1.2c0,0.1,0,0.4-0.1,0.8c-1.3,5.2-2.2,9.4-2.7,12.5c-0.3,2-0.5,3.8-0.5,5.3c0,0.8,0,1.3,0.1,1.7
		c0.3,0.2,0.7,0.1,1.3-0.4c0.6-0.5,1.8-1.8,3.6-3.9c1.8-2.1,4.8-5.8,9-11c0,0,1.1-1.4,3.2-4.2c0.3-0.4,0.6-0.7,0.9-0.9
		c0.3-0.2,0.6-0.2,0.8,0c0.1,0.1,0.2,0.3,0.2,0.4c0,0.2-0.2,0.7-0.6,1.4l-3.1,4c-4.1,5.4-7.4,9.7-10,12.9c-2.6,3.2-4.4,5-5.3,5.5
		C48.6,55.9,48,56,47.4,56c-2.7,0-4.1-1.6-4.1-4.7c0-1.2,0.1-2.8,0.2-4.8l-2.1,2.2c-2.2,2.4-3.6,4-4.2,4.7c-1,1.2-2.2,2.1-3.6,2.8
		c-1.4,0.7-2.9,1-4.3,1c-1.4,0-2.7-0.3-3.7-1C23.9,55.1,23.1,53.5,23.1,51.5z M43.8,41.7c1-1.4,1.4-2.5,1.4-3.5c0-0.2,0-0.4-0.1-0.6
		L44.7,36c0-0.1-0.2-0.7-0.4-1.6s-0.6-1.7-1-2.4c-0.6-1.2-1.4-1.7-2.4-1.7c-0.8,0-1.8,0.4-3,1.2c-1.4,0.9-2.6,2.2-3.6,4
		c-1.7,3-3.2,6.7-4.7,11.1c-0.5,1.7-0.8,3.4-0.8,5c0,2,0.4,3,1.3,3c0.5,0,1.3-0.4,2.2-1.1C37.1,49.7,41,45.8,43.8,41.7z"/>
	<path class="st0" d="M63.4,71.6c-1.4,0-2.7-0.3-3.9-0.9c-1.2-0.6-2-1.4-2.3-2.3c-0.1-0.4-0.2-0.9-0.2-1.3c0-0.9,0.3-1.8,0.9-2.7
		c1.4-1.6,2.6-2.9,3.6-3.7c4.6-3.7,8.1-6.4,10.4-8c1.2-0.8,2.1-1.7,2.6-2.5c0.5-0.9,0.8-2,0.7-3.5c-1.3,1.8-2.9,3.5-4.8,5.2
		c-1.9,1.6-3.8,2.4-5.7,2.4c-0.9,0-1.8-0.2-2.7-0.6c-3-1.2-4.4-3.4-4.2-6.6c0.2-4.4,1.3-8.3,3.3-11.7c1.8-2.9,4.4-4.9,7.8-5.9
		c1.7-0.5,3.2-0.7,4.5-0.7c1.2,0,2.4,0.2,3.4,0.7c1,0.5,2,1.2,3.1,2.3c0.2-0.3,0.5-0.7,0.7-1.1c0.2-0.4,0.5-0.9,0.9-1.3
		c0.2-0.4,0.5-0.7,0.6-0.9c0.2-0.2,0.5-0.3,0.8-0.3c0.3,0,0.6,0.1,0.7,0.3c0.1,0.2,0.2,0.4,0.3,0.6s0.1,0.4,0.1,0.5
		c0.1,0.3,0.1,0.5,0.1,0.6c0,0.2,0,0.5-0.1,0.9c-0.1,0.4-0.2,0.7-0.2,0.9l-2,12.5c1.3-0.4,2.8-1.4,4.4-2.8c1.6-1.4,3.2-3.1,4.7-5
		c0,0,1.1-1.4,3.2-4.2c0.3-0.4,0.6-0.7,0.9-0.9c0.3-0.2,0.6-0.2,0.8,0c0.1,0.1,0.2,0.3,0.2,0.4c0,0.2-0.2,0.7-0.6,1.4L94,35.6
		c-1.9,2.6-3.6,4.8-5.3,6.6c-1.7,1.8-3.5,3.4-5.6,4.7c-0.9,0.6-1.5,1.3-2,1.9c-0.5,0.7-0.8,1.5-1.1,2.4c-0.6,2.3-1.1,4.1-1.5,5.4
		c-0.4,1.3-0.9,2.6-1.6,3.9c-2.2,4.2-5.5,7.6-9.9,10.2C65.9,71.3,64.7,71.6,63.4,71.6z M63,69.4c0.4,0,0.7-0.1,1-0.3
		c0.3-0.2,0.6-0.5,0.9-0.8c0.3-0.3,0.6-0.5,0.8-0.6c3.8-3.5,6.2-8,7.3-13.6l-1.9,1.3c-2.1,1.4-3.8,2.7-5.2,3.8
		c-1.3,1.1-2.6,2.3-3.8,3.6c-0.5,0.5-0.9,1.2-1.4,2c-0.3,0.8-0.5,1.4-0.5,1.9c0,1.1,0.6,1.9,1.7,2.5C62.3,69.3,62.7,69.4,63,69.4z
		 M71.9,45.2c1.3-1.6,2.7-3.6,4.3-6c0.7-1.1,1.1-1.7,1.2-1.8c0.6-0.8,0.9-1.7,0.9-2.5c0-0.5-0.1-1-0.3-1.5s-0.4-1-0.7-1.5
		c-0.4-0.9-1.3-1.4-2.5-1.4c-0.6,0-1.2,0.1-1.8,0.2c-2.4,0.6-4.5,2-6,4.2c-1.3,1.9-2.2,4-2.8,6.3c-0.6,2.2-0.9,4-0.9,5.5
		c0,0.9,0,1.5,0.1,1.9c0.1,0.8,0.3,1.4,0.5,1.8c0.2,0.4,0.5,0.5,0.9,0.5c0.5,0,1.4-0.5,2.7-1.4C69.1,48.3,70.6,46.8,71.9,45.2z"/>
	<path class="st0" d="M87.1,52.2c-1.1-0.9-1.6-2.3-1.6-4c0-0.5,0.1-1.2,0.3-2.3c0.7-3.1,1.6-6,2.8-8.5c1.2-2.5,2.9-4.9,5.1-7.1
		c2.4-2.4,5.3-4.4,8.6-5.9c0.8-0.4,1.6-0.6,2.6-0.6c1.5,0,2.6,0.3,3.4,0.8c0.8,0.5,1.2,1.3,1.2,2.2c0,1.1-0.5,2.4-1.4,3.9
		c-0.6,1.1-1.5,2.2-2.7,3.3c-3.7,3.6-7.5,6.3-11.2,8.2c-0.6,0.3-1.1,0.7-1.4,1.1c-0.3,0.4-0.5,0.9-0.7,1.4c-0.1,0.3-0.2,0.9-0.4,1.7
		c-0.2,0.8-0.3,1.5-0.3,2.1c0,1,0.3,1.7,0.9,2.1c0.8,0.3,2.4-0.3,5-1.8c2.6-1.5,5.3-3.5,8.2-5.9c2.9-2.4,5.1-4.6,6.7-6.5
		c0,0,1.1-1.4,3.2-4.2c0.3-0.4,0.6-0.7,0.9-0.9c0.3-0.2,0.6-0.2,0.8,0c0.1,0.1,0.2,0.3,0.2,0.4c0,0.2-0.2,0.7-0.6,1.4
		c-2.5,3.2-5.4,6.5-8.6,9.8c-3.3,3.3-6.1,5.9-8.5,7.7c-3,1.8-5.6,2.7-7.9,2.7C89.8,53.6,88.2,53.1,87.1,52.2z M101,35.7
		c1.9-1.4,3.5-3.1,4.9-5.1c0.8-1.1,1.3-2,1.4-2.8c0-0.8-0.1-1.4-0.4-1.8c-0.3-0.4-0.7-0.6-1.2-0.6c-0.5,0-1.1,0.3-1.9,0.8
		c-5.3,4-8.6,8.7-9.9,14.1C96.8,38.6,99.1,37.1,101,35.7z"/>
	<path class="st0" d="M110.7,56c-0.4-0.3-0.5-0.8-0.3-1.4c0.1-0.7,0.5-1.4,1.1-2.1c0.6-0.7,1.3-1.1,1.9-1.1c0.5,0,1,0.2,1.5,0.7
		c0.5,0.5,0.7,1,0.6,1.5c-0.1,0.7-0.5,1.3-1.1,1.9c-0.6,0.5-1.3,0.8-2.1,0.9C111.6,56.4,111.1,56.3,110.7,56z"/>
	<path class="st0" d="M140.1,60.1c-0.6-0.6-0.9-1.5-0.9-2.7c0.2-4,0.9-7.6,2.1-10.9l0.9-2.5c0.1-0.4,0.5-1.5,1.2-3.2
		s1.2-3.3,1.9-4.8c0.6-1.5,1.2-2.8,1.9-4l0.1-0.3c0.1-0.4,0.4-0.9,0.6-1.6c0.3-0.7,0.4-1.2,0.4-1.7c0-0.5-0.2-0.9-0.7-1.2
		c-0.2-0.1-0.4-0.1-0.6-0.1c-0.8,0-2,0.8-3.7,2.3c-3.7,3.6-6.9,7.3-9.6,11c-2.7,3.7-4.7,7.6-6.1,11.7c-0.6,1.5-1.1,2.7-1.6,3.4
		c-0.6,1-1.6,1.7-2.9,2c-0.6,0.1-0.9,0.1-1.1,0.1c-0.9,0-1.3-0.4-1.3-1.2c0-0.1,0-0.5,0.1-0.9c0.8-3.2,1.8-7.1,3-11.8l5.9-20.2
		c0.9-2.9,1.9-5.6,3.2-7.9c0.2-0.5,0.6-1.1,1.2-1.8c0.7-0.9,1.5-1.4,2.6-1.4c0.3,0,0.6,0,0.7,0.1c0.8,0.1,1.2,0.6,1.2,1.4l-0.1,0.6
		c-0.1,1-0.3,2-0.6,2.9c-1.5,5.8-3.1,11.5-4.8,17.3c0,0.2-0.2,0.7-0.4,1.4c-0.2,0.7-0.3,1.3-0.2,1.8h0.3c0.4,0,0.8-0.2,1-0.5
		c0.2-0.4,0.4-0.6,0.6-0.8c1.8-2,3.6-4,5.3-6c2-2.2,4.5-3.8,7.5-4.8c0.9-0.2,1.5-0.4,2-0.4c1,0,1.7,0.3,2.3,0.8
		c0.6,0.5,0.8,1.3,0.8,2.3c0,0.5-0.1,1-0.2,1.6c-1.4,5.8-2.8,10.4-4.1,13.8c-0.7,1.8-1.3,4-2,6.6c-0.6,2.6-1,4.5-1,5.6
		c0,0.6,0.1,0.9,0.4,1c2.1-0.8,5.4-4.3,10-10.6c4.6-6.3,6.9-9.6,7.1-9.8c0,0,1.1-1.4,3.2-4.2c0.3-0.4,0.6-0.7,0.9-0.9
		c0.3-0.2,0.6-0.2,0.8,0c0.1,0.1,0.2,0.3,0.2,0.4c0,0.2-0.2,0.7-0.6,1.4c-2,2.6-4,5.4-6.2,8.5c-5.5,7.6-9.6,13-12.4,16.1
		c-1.4,1.6-3.4,2.5-5.9,2.7C141.6,60.9,140.7,60.7,140.1,60.1z"/>
	<path class="st0" d="M155.9,51.5c0.1-6,2-11.6,5.8-16.9c1.1-1.5,2.8-2.9,5.4-4.1c2.5-1.2,4.7-1.9,6.4-1.9l0.8,0.1
		c2,0.3,3.3,1.4,4.1,3.2c0.2,0.4,0.6,1.2,0.9,2.2c0.3-0.3,0.7-0.7,1.2-1.3c0.9-1,1.7-1.7,2.2-1.9c0.5-0.2,1-0.4,1.5-0.4
		c0.8,0,1.2,0.4,1.2,1.2c0,0.1,0,0.4-0.1,0.8c-1.3,5.2-2.2,9.4-2.7,12.5c-0.3,2-0.5,3.8-0.5,5.3c0,0.8,0,1.3,0.1,1.7
		c0.3,0.2,0.7,0.1,1.3-0.4c0.6-0.5,1.8-1.8,3.6-3.9c1.8-2.1,4.8-5.8,9-11c0,0,1.1-1.4,3.2-4.2c0.3-0.4,0.6-0.7,0.9-0.9
		c0.3-0.2,0.6-0.2,0.8,0c0.1,0.1,0.2,0.3,0.2,0.4c0,0.2-0.2,0.7-0.6,1.4l-3.1,4c-4.1,5.4-7.4,9.7-10,12.9c-2.6,3.2-4.4,5-5.3,5.5
		c-0.7,0.1-1.4,0.2-1.9,0.2c-2.7,0-4.1-1.6-4.1-4.7c0-1.2,0.1-2.8,0.2-4.8l-2.1,2.2c-2.2,2.4-3.6,4-4.2,4.7c-1,1.2-2.2,2.1-3.6,2.8
		c-1.4,0.7-2.9,1-4.3,1c-1.4,0-2.7-0.3-3.7-1C156.7,55.1,155.9,53.5,155.9,51.5z M176.6,41.7c1-1.4,1.4-2.5,1.4-3.5
		c0-0.2,0-0.4-0.1-0.6l-0.4-1.7c0-0.1-0.2-0.7-0.4-1.6s-0.6-1.7-1-2.4c-0.6-1.2-1.4-1.7-2.4-1.7c-0.8,0-1.8,0.4-3,1.2
		c-1.4,0.9-2.6,2.2-3.6,4c-1.7,3-3.2,6.7-4.7,11.1c-0.5,1.7-0.8,3.4-0.8,5c0,2,0.4,3,1.3,3c0.5,0,1.3-0.4,2.2-1.1
		C169.9,49.7,173.7,45.8,176.6,41.7z"/>
	<path class="st0" d="M196.7,55.7c-0.8-1-1.2-2.4-1-4c0.2-5.5,2.1-10.8,5.5-16l1.2-1.8c0,0,0.1-0.2,0.1-0.4
		c-0.1-0.2-0.3-0.4-0.5-0.5c-0.2-0.1-0.5-0.1-0.8-0.1c-0.3,0-0.6,0-0.9,0c-1.9-0.2-3.4-0.5-4.5-0.9c-2-0.8-3-2.2-3-4.2
		c0-1.1,0.3-2.1,0.9-3.2c0.6-1.1,1.5-2.1,2.6-3c0.3-0.3,0.6-0.5,0.9-0.6c1.9-1.2,3.6-1.8,5.3-1.8c1,0,1.8,0.3,2.5,0.8
		c0.5,0.5,0.8,1.3,0.8,2.2c0,1.4-0.5,3-1.5,4.7c-0.8,1.2-1.7,2.4-2.7,3.9c1.3,0.2,3.2,0.4,5.5,0.4c0.7,0,1.2,0.1,1.5,0.2
		s0.4,0.4,0.4,0.8c0,0.3-0.1,0.9-0.4,1.6c-0.5,1.4-1.2,3-2.2,4.9l-1.8,4c-0.9,1.9-1.5,3.6-2.1,5.2c-0.5,1.5-0.8,3-1,4.5
		c-0.1,1.4,0.1,2.1,0.8,2.1c0.4,0,1-0.3,1.9-0.9c2.9-1.9,5.6-4.1,8.1-6.6c2.4-2.5,5.4-6,8.9-10.4c0,0,1.1-1.4,3.2-4.2
		c0.3-0.4,0.6-0.7,0.9-0.9c0.3-0.2,0.6-0.2,0.8,0c0.1,0.1,0.2,0.3,0.2,0.4c0,0.2-0.2,0.7-0.6,1.4l-1.3,1.7c-3.4,4.4-6.4,8.2-9,11.3
		c-2.6,3.1-5.3,5.8-7.8,8.1c-2.1,1.8-4.4,2.7-6.8,2.7C198.9,57.2,197.5,56.7,196.7,55.7z M202.2,25.6c0.5-1.1,0.7-2.2,0.6-3.3V22
		c0-0.5-0.2-0.8-0.5-0.9h-0.2c-0.4,0-0.9,0.3-1.3,0.8c-0.9,0.8-1.6,1.9-1.9,3.3c-0.3,1.2-0.4,2.1-0.4,2.7c0,0.2,0,0.6,0.1,1.1
		c0.2,0.4,0.4,0.6,0.7,0.6c0.2,0,0.4-0.1,0.7-0.4C201,27.8,201.7,26.6,202.2,25.6z"/>
	<path class="st0" d="M244.6,32c0,0.2-0.2,0.7-0.6,1.4c-1,1.3-2.1,2.8-3.1,4.5c-1.1,1.7-1.8,2.8-2.2,3.4c-1.8,2.9-3.3,5.3-4.7,7.2
		c-1.3,1.9-2.9,3.7-4.8,5.5c-1,1.1-2.1,1.8-3.2,2.4c-1.1,0.5-2.2,0.8-3.3,0.8c-1.3,0-2.5-0.4-3.5-1.3c-1-0.8-1.6-2-1.8-3.6
		c-0.1-1-0.1-1.7-0.1-2.2c0-1.8,0.3-3.6,0.8-5.5l0.4-1.6c1.7-6.1,3.2-11.1,4.5-14.8c0.5-1.1,1.2-2.9,2-5.4l1.3-3.4
		c-0.5,0-1.2-0.1-2.2-0.1c-0.8-0.1-1.2-0.2-1.2-0.4c0-0.3,0.6-0.4,1.5-0.4h2.2c0.6-1.8,1.1-2.9,1.3-3.3c1-2.4,2.4-3.5,4.2-3.5
		c1.2,0,1.8,0.6,1.8,1.9c0,0.4-0.1,0.9-0.2,1.5c-0.2,0.9-0.5,2.1-1,3.5c0.6,0,1.3,0.1,2.2,0.1c0.9,0,1.3,0.2,1.3,0.5
		c-0.1,0.2-0.3,0.3-0.8,0.3c-0.4,0-0.7,0-0.8,0h-2.2l-1.8,5.8l-1.8,6.2c-0.5,1.6-1.1,3.7-1.9,6.3c-0.8,2.6-1.4,4.9-2,6.7
		c-1.2,3.6-1.7,6.1-1.7,7.6c0,1.2,0.3,2,0.9,2.4c1.8-0.6,4-2.6,6.7-6c2.7-3.5,5.2-7,7.6-10.7c0.2-0.4,0.4-0.7,0.6-0.9
		c0.1-0.2,0.2-0.3,0.3-0.4c0,0,1.1-1.4,3.2-4.2c0.3-0.4,0.6-0.7,0.9-0.9c0.3-0.2,0.6-0.2,0.8,0C244.5,31.7,244.6,31.9,244.6,32z"/>
	<path class="st0" d="M249.2,48.6c2.7-3.5,5.2-7,7.6-10.7c0.2-0.4,0.4-0.7,0.6-0.9c0.1-0.2,0.2-0.3,0.3-0.4c0,0,1.1-1.4,3.2-4.2
		c0.3-0.4,0.6-0.7,0.9-0.9c0.3-0.2,0.6-0.2,0.8,0c0.1,0.1,0.2,0.3,0.2,0.4c0,0.2-0.2,0.7-0.6,1.4c-1,1.3-2.1,2.8-3.1,4.5
		c-1.1,1.7-1.8,2.8-2.2,3.4c-1.8,2.9-3.3,5.3-4.7,7.2c-1.3,1.9-2.9,3.7-4.8,5.5c-1,1.1-2.1,1.8-3.2,2.4c-1.1,0.5-2.2,0.8-3.3,0.8
		c-1.3,0-2.5-0.4-3.5-1.3c-1-0.8-1.6-2-1.8-3.6c-0.1-1-0.1-1.7-0.1-2.2c0-1.8,0.3-3.6,0.8-5.5l0.4-1.6c1.7-6.1,3.2-11.1,4.5-14.8
		c0.2-0.5,1.1-2.7,2.5-6.6c1.2-3.5,2.1-5.7,2.4-6.5c1-2.4,2.4-3.5,4.2-3.5c1.2,0,1.8,0.6,1.8,1.9c0,0.6-0.4,2.3-1.2,4.9
		s-1.3,4.3-1.5,4.9l-0.6,1.9l-1.8,6.2c-0.5,1.6-1.1,3.7-1.9,6.3c-0.8,2.6-1.4,4.9-2,6.7c-1.2,3.6-1.7,6.1-1.7,7.6
		c0,1.2,0.3,2,0.9,2.4C244.3,54.1,246.5,52.1,249.2,48.6z"/>
	<path class="st0" d="M258.7,72.3c-1.4,0-2.6-0.6-3.4-1.7c-0.6-0.8-0.9-1.6-0.9-2.5c0-1.2,0.5-2.5,1.6-4.1c1.1-1.6,2.4-3.2,3.9-4.6
		c1.5-1.4,3.2-2.9,5.2-4.5c0.2-0.2,0.5-0.4,0.8-0.6c0.3-0.2,0.7-0.4,1-0.7c1.7-0.9,3-2.1,3.7-3.5c0.8-1.4,1.2-3.2,1.3-5.3l-1.2,1.3
		c-0.3,0.4-0.8,0.9-1.3,1.4c-0.5,0.6-0.9,1-1.2,1.4c-1.1,1.3-2.2,2.3-3.6,3.1c-1.3,0.7-2.8,1.3-4.4,1.7c-0.7,0.1-1.3,0.2-1.9,0.2
		c-1.2,0-2.2-0.3-2.9-1c-0.7-0.7-1.1-1.6-1-2.7c0.1-3.6,0.6-7.1,1.4-10.3c0.8-3.2,2.2-6.3,4.1-9.3c0,0,0.1-0.2,0.4-0.6
		c0.8-1.4,1.7-2.1,2.7-2.1c1.2,0,1.8,0.6,1.8,1.7c0,0.4-0.1,0.8-0.2,1.2c-0.6,2-1.2,4.9-1.9,8.9l-0.6,3.5c-0.4,1.8-0.6,3.4-0.6,4.6
		c0,0.5,0,0.9,0.1,1.2c0.1,0.9,0.4,1.4,0.9,1.4c0.4,0,1-0.3,1.7-0.9c3.3-2.9,5.8-5.7,7.6-8.4c1.5-2.3,2.7-4.1,3.5-5.7
		c0.9-1.5,1.6-3.1,2.2-4.6c0.3-0.7,0.7-1.3,1.1-1.9c0.2-0.4,0.5-0.6,0.9-0.8s0.7-0.2,1.2-0.3c1,0,1.5,0.5,1.5,1.5
		c-0.2,1.3-0.7,3.7-1.5,7.1c-0.9,3.8-1.4,6.5-1.7,7.9c1.3-0.4,2.8-1.4,4.4-2.8c1.6-1.4,3.2-3.1,4.7-5c0,0,1.1-1.4,3.2-4.2
		c0.3-0.4,0.6-0.7,0.9-0.9c0.3-0.2,0.6-0.2,0.8,0c0.1,0.1,0.2,0.3,0.2,0.4c0,0.2-0.2,0.7-0.6,1.4l-1.7,2.2c-1.9,2.6-3.6,4.8-5.3,6.6
		c-1.7,1.8-3.5,3.4-5.6,4.7c-1.1,0.7-1.8,1.4-2.4,1.9c-0.5,0.6-0.9,1.3-1.1,2.2c-0.4,1.9-1.1,3.9-1.9,5.8c-0.8,1.9-1.9,4.2-3.3,6.7
		c-2.1,3.9-5.4,6.7-9.9,8.2C260.5,72.1,259.5,72.3,258.7,72.3z M260.7,70c0.8,0,1.5-0.2,2.3-0.7c0.7-0.5,1.4-1.2,1.9-2.1
		c0.8-1.4,1.5-2.9,2.1-4.5s1.2-3.5,1.9-5.8l1.3-3.9c-2.4,1.5-4.6,3-6.3,4.4c-1.8,1.4-3.3,3-4.6,4.8c-0.8,1.1-1.4,2-1.7,2.7
		c-0.2,0.4-0.3,1-0.3,1.6c0,0.7,0.2,1.4,0.6,2c0.4,0.6,1,1,1.8,1.3C259.9,70,260.2,70,260.7,70z"/>
	<path class="st0" d="M295,56.7c-2.4-1.6-4-4.2-4.9-7.6c-0.3-1.1-0.4-2.2-0.4-3.3c0-1.2,0.2-3,0.6-5.5c1.3-8.2,5.4-15,12.2-20.3
		c1.9-1.6,4-2.7,6.3-3.2c3-0.7,5.9-1.1,8.7-1.1c2.7,0,5.3,0.3,7.6,1c2.3,0.7,4.2,1.8,5.6,3.5c1.4,1.6,2.4,3.6,2.8,6
		c0.3,1.9,0.5,3.6,0.5,5c0,7.1-2.9,13.7-8.7,19.8c-5.2,5.5-11.6,8.2-19.2,8.2c-0.9,0-1.6,0-2.1-0.1C300.3,59.1,297.3,58.3,295,56.7z
		 M315.6,55c3.1-1.5,6-3.8,8.7-6.9c4.5-5.3,6.8-10.8,6.8-16.6c0-0.9-0.1-1.9-0.2-2.9c-0.7-6.1-4.1-9.7-10.2-10.9
		c-0.7-0.1-1.2-0.1-1.7-0.1c-1,0-2.2,0.1-3.5,0.4c-1.5,0.2-2.6,0.3-3.3,0.3c-1.8,0-3.4,0.4-4.7,1.3c-1.3,0.8-2.8,2.1-4.5,3.8
		c-2.2,2.3-3.7,4.1-4.8,5.6c-3.3,4.8-5,9.7-5,14.7c0,1.2,0.2,2.8,0.5,4.5c0.6,3,1.9,5.2,3.9,6.8c1.9,1.6,4.4,2.2,7.2,2.1
		C308.8,57.2,312.4,56.5,315.6,55z M313.6,44c-0.4,0.1-0.8,0.4-1.2,0.8c-0.3,0.4-0.6,0.6-0.6,0.7c-2,1.9-4.1,2.8-6.1,2.8
		c-1.4,0-2.6-0.5-3.6-1.5c-0.9-1-1.4-2.5-1.4-4.4c0-2.4,0.7-5.1,2.1-8.2c1.4-3,3-5.4,4.9-7c1-0.9,2.2-1.6,3.9-2.1
		c1.6-0.6,3.1-0.8,4.6-0.8c1.6,0,2.7,0.4,3.3,1.1c0.2,0.2,0.6,0.7,1.2,1.4c0.6,0.7,1.1,1.4,1.4,2.1c0.3,0.7,0.5,1.5,0.5,2.2
		c0,0.4-0.1,0.9-0.2,1.4c-0.9,3.6-1.4,6-1.7,7.3c0,0.4-0.2,1-0.3,1.8c-0.2,0.8-0.3,1.5-0.3,2c0,1.2,0.4,2.2,1.1,2.9
		c0.1,0.1,0.2,0.4,0.2,0.6c0,0.2-0.1,0.5-0.3,0.7c-0.4,0.4-0.9,0.5-1.4,0.4C316.2,47.9,314.2,46.5,313.6,44z M314.6,37.3
		c1.2-2.4,2.3-5,3.1-7.9c0.2-0.5,0.3-1,0.3-1.5c0-1.3-0.9-1.9-2.7-1.9c-1.8,0-3.3,1-4.4,3c-1.1,1.8-1.7,3.6-2,5.3
		c-0.4,1.6-0.7,2.6-0.8,3.1c-0.5,1.7-0.8,3.3-0.8,4.8c0,0.4,0,0.9,0.1,1.6c0.1,0.8,0.4,1.2,0.9,1.2c0.4,0,0.9-0.3,1.5-0.9
		C311.8,41.9,313.4,39.7,314.6,37.3z"/>
	<path class="st0" d="M340.1,71.6c-1.4,0-2.7-0.3-3.9-0.9c-1.2-0.6-2-1.4-2.3-2.3c-0.1-0.4-0.2-0.9-0.2-1.3c0-0.9,0.3-1.8,0.9-2.7
		c1.4-1.6,2.6-2.9,3.6-3.7c4.6-3.7,8.1-6.4,10.4-8c1.2-0.8,2.1-1.7,2.6-2.5c0.5-0.9,0.8-2,0.7-3.5c-1.3,1.8-2.9,3.5-4.8,5.2
		c-1.9,1.6-3.8,2.4-5.7,2.4c-0.9,0-1.8-0.2-2.7-0.6c-3-1.2-4.4-3.4-4.2-6.6c0.2-4.4,1.3-8.3,3.3-11.7c1.8-2.9,4.4-4.9,7.8-5.9
		c1.7-0.5,3.2-0.7,4.5-0.7c1.2,0,2.4,0.2,3.4,0.7c1,0.5,2,1.2,3.1,2.3c0.2-0.3,0.5-0.7,0.7-1.1c0.2-0.4,0.5-0.9,0.9-1.3
		c0.2-0.4,0.5-0.7,0.6-0.9c0.2-0.2,0.5-0.3,0.8-0.3c0.3,0,0.6,0.1,0.7,0.3c0.1,0.2,0.2,0.4,0.3,0.6s0.1,0.4,0.1,0.5
		c0.1,0.3,0.1,0.5,0.1,0.6c0,0.2,0,0.5-0.1,0.9c-0.1,0.4-0.2,0.7-0.2,0.9l-2,12.5c1.3-0.4,2.8-1.4,4.4-2.8c1.6-1.4,3.2-3.1,4.7-5
		c0,0,1.1-1.4,3.2-4.2c0.3-0.4,0.6-0.7,0.9-0.9c0.3-0.2,0.6-0.2,0.8,0c0.1,0.1,0.2,0.3,0.2,0.4c0,0.2-0.2,0.7-0.6,1.4l-1.7,2.2
		c-1.9,2.6-3.6,4.8-5.3,6.6c-1.7,1.8-3.5,3.4-5.6,4.7c-0.9,0.6-1.5,1.3-2,1.9c-0.5,0.7-0.8,1.5-1.1,2.4c-0.6,2.3-1.1,4.1-1.5,5.4
		c-0.4,1.3-0.9,2.6-1.6,3.9c-2.2,4.2-5.5,7.6-9.9,10.2C342.6,71.3,341.4,71.6,340.1,71.6z M339.6,69.4c0.4,0,0.7-0.1,1-0.3
		c0.3-0.2,0.6-0.5,0.9-0.8c0.3-0.3,0.6-0.5,0.8-0.6c3.8-3.5,6.2-8,7.3-13.6l-1.9,1.3c-2.1,1.4-3.8,2.7-5.2,3.8
		c-1.3,1.1-2.6,2.3-3.8,3.6c-0.5,0.5-0.9,1.2-1.4,2c-0.3,0.8-0.5,1.4-0.5,1.9c0,1.1,0.6,1.9,1.7,2.5C339,69.3,339.3,69.4,339.6,69.4
		z M348.5,45.2c1.3-1.6,2.7-3.6,4.3-6c0.7-1.1,1.1-1.7,1.2-1.8c0.6-0.8,0.9-1.7,0.9-2.5c0-0.5-0.1-1-0.3-1.5s-0.4-1-0.7-1.5
		c-0.4-0.9-1.3-1.4-2.5-1.4c-0.6,0-1.2,0.1-1.8,0.2c-2.4,0.6-4.5,2-6,4.2c-1.3,1.9-2.2,4-2.8,6.3c-0.6,2.2-0.9,4-0.9,5.5
		c0,0.9,0,1.5,0.1,1.9c0.1,0.8,0.3,1.4,0.5,1.8s0.5,0.5,0.9,0.5c0.5,0,1.4-0.5,2.7-1.4C345.8,48.3,347.3,46.8,348.5,45.2z"/>
	<path class="st0" d="M398.6,61.4c-1,0-1.7-0.3-2.1-0.8c-0.5-0.5-0.7-1.3-0.8-2.3c0-1.5,0.3-3,0.7-4.6c0.4-1.6,1-3.4,1.7-5.5
		l0.5-1.4c1.8-4.9,3.8-9.6,6-13.9c0.1-0.2,0.4-0.7,0.8-1.5c0.4-0.8,0.6-1.4,0.6-1.9c0-0.4-0.1-0.7-0.4-0.8c-0.3-0.1-0.5-0.1-0.6-0.1
		c-0.4,0-0.9,0.2-1.3,0.5c-0.4,0.4-0.9,0.8-1.3,1.3c-0.4,0.5-0.8,0.8-1,1.1c-3.9,4.2-7.2,7.9-9.6,11.3c-1.2,1.5-2.1,2.7-2.7,3.4
		c-1.2,1.2-2.8,1.8-4.7,1.7c-0.8-0.1-1.2-0.4-1.4-0.8c-0.2-0.5-0.3-1.1-0.4-2.1c0-0.3,0.4-2.1,1.4-5.3c1.8-5.4,2.5-8.2,2.1-8.4
		c0,0-0.1-0.1-0.3-0.1c-0.3,0-0.6,0.1-0.8,0.4c-2.9,3.2-5.3,5.9-7.2,8.2c-1.9,2.3-3.5,4.8-4.9,7.4c-0.7,1.2-1.2,2-1.7,2.6
		c-0.1,0.3-0.3,0.6-0.6,1s-0.5,0.8-0.8,1.3c-0.5,0.8-1,1.3-1.7,1.5c-0.6,0.3-1.3,0.4-2.2,0.4c-1.6,0.1-2.4-0.6-2.4-2.1
		c0-1.3,0.1-2.3,0.2-3c0.8-3.5,1.6-6.6,2.4-9.4c0.8-2.8,1.8-5.5,2.9-8.1c0.1-0.2,0.5-1,1.3-2.4c0.7-1.1,1.4-1.6,2.2-1.6
		c0.9,0,1.3,0.6,1.2,1.7c0,0.5-0.1,1.2-0.1,2.3c0,1-0.2,2-0.4,2.8c-0.3,1.6-0.7,3.7-1.2,6.2l-0.6,3.1c0.1,0,0.3,0,0.6,0.1
		c1.2-1.2,2.9-3,4.9-5.5l1.2-1.5l5.7-6.2c0.5-0.7,1.2-1.2,1.9-1.6c0.7-0.4,1.4-0.6,2.1-0.6c0.9,0,1.5,0.4,1.9,1.3
		c0.3,0.8,0.4,1.6,0.4,2.4c0,0.6-0.1,1.2-0.2,1.9l-0.6,2.7c-0.3,0.8-0.5,1.6-0.6,2.4c0,0.3-0.1,0.7-0.3,1.2
		c-0.1,0.5-0.2,0.9-0.2,1.2c0,0.6,0.1,1.1,0.4,1.4c1.1-0.8,2.4-2.2,4-4c0.9-1,1.3-1.5,1.2-1.4l5.1-5.7c1.1-1.1,2.1-2,3-2.7
		c1.5-1.2,2.8-1.7,4-1.7c0.4,0,0.9,0.1,1.5,0.4c1.2,0.6,1.9,1.6,1.9,3c0,0.5-0.1,1.1-0.2,1.7c-0.4,1.7-1.3,4.5-2.6,8.4
		c-0.3,0.9-1.3,3.7-3,8.5l-1.1,3c-0.2,0.8-0.4,1.2-0.5,1.4c-0.5,1.2-0.7,1.9-0.7,2.4c0,0.4,0.1,0.6,0.4,0.6c1.2-0.1,2.6-1.2,4.2-3.2
		c1.6-2,3.8-5.2,6.5-9.4c1.6-2.6,3-4.7,4.2-6.4c1.2-1.7,2.3-3.3,3.5-4.6c0.3-0.4,0.6-0.7,0.9-0.9c0.3-0.2,0.6-0.2,0.8,0
		c0.1,0.1,0.2,0.3,0.2,0.4c0,0.2-0.2,0.7-0.6,1.4c-1.1,1.4-2.9,4.2-5.3,8.4c-2.4,3.9-4.3,7.1-6,9.5c-1.6,2.5-3.4,4.7-5.3,6.7
		s-3.6,3.1-5.3,3.4C399.4,61.4,399,61.4,398.6,61.4z"/>
	<path class="st0" d="M410.2,51.5c0.1-6,2-11.6,5.8-16.9c1.1-1.5,2.8-2.9,5.4-4.1c2.5-1.2,4.7-1.9,6.4-1.9l0.8,0.1
		c2,0.3,3.3,1.4,4.1,3.2c0.2,0.4,0.6,1.2,0.9,2.2c0.3-0.3,0.7-0.7,1.2-1.3c0.9-1,1.7-1.7,2.2-1.9c0.5-0.2,1-0.4,1.5-0.4
		c0.8,0,1.2,0.4,1.2,1.2c0,0.1,0,0.4-0.1,0.8c-1.3,5.2-2.2,9.4-2.7,12.5c-0.3,2-0.5,3.8-0.5,5.3c0,0.8,0,1.3,0.1,1.7
		c0.3,0.2,0.7,0.1,1.3-0.4c0.6-0.5,1.8-1.8,3.6-3.9c1.8-2.1,4.8-5.8,9-11c0,0,1.1-1.4,3.2-4.2c0.3-0.4,0.6-0.7,0.9-0.9
		c0.3-0.2,0.6-0.2,0.8,0c0.1,0.1,0.2,0.3,0.2,0.4c0,0.2-0.2,0.7-0.6,1.4l-3.1,4c-4.1,5.4-7.4,9.7-10,12.9c-2.6,3.2-4.4,5-5.3,5.5
		c-0.7,0.1-1.4,0.2-1.9,0.2c-2.7,0-4.1-1.6-4.1-4.7c0-1.2,0.1-2.8,0.2-4.8l-2.1,2.2c-2.2,2.4-3.6,4-4.2,4.7c-1,1.2-2.2,2.1-3.6,2.8
		c-1.4,0.7-2.9,1-4.3,1c-1.4,0-2.7-0.3-3.7-1C411,55.1,410.2,53.5,410.2,51.5z M430.9,41.7c1-1.4,1.4-2.5,1.4-3.5
		c0-0.2,0-0.4-0.1-0.6l-0.4-1.7c0-0.1-0.2-0.7-0.4-1.6s-0.6-1.7-1-2.4c-0.6-1.2-1.4-1.7-2.4-1.7c-0.8,0-1.8,0.4-3,1.2
		c-1.4,0.9-2.6,2.2-3.6,4c-1.7,3-3.2,6.7-4.7,11.1c-0.5,1.7-0.8,3.4-0.8,5c0,2,0.4,3,1.3,3c0.5,0,1.3-0.4,2.2-1.1
		C424.2,49.7,428,45.8,430.9,41.7z"/>
	<path class="st0" d="M443.9,54.4v-0.9c0-0.6,0-1,0.1-1.3c1-4.3,1.9-7.9,2.8-10.9c0.9-3,2.1-5.9,3.5-8.8c0.4-0.9,0.9-1.6,1.5-2
		c0.6-0.4,1.4-0.6,2.4-0.6c0.6,0,1,0.2,1.3,0.5c0.2,0.3,0.3,0.9,0.3,1.6c-0.1,0.8-0.3,1.9-0.7,3.2c-1,3.6-2.5,8.9-4.4,16
		c-0.3,1-0.4,1.7-0.4,1.9c0,0.4,0.2,0.6,0.5,0.6c0.8-0.2,2.1-1.7,4-4.2c1.9-2.6,4.3-6,7.2-10.1l1.9-2.7c0,0,1.1-1.4,3.2-4.2
		c0.3-0.4,0.6-0.7,0.9-0.9c0.3-0.2,0.6-0.2,0.8,0c0.1,0.1,0.2,0.3,0.2,0.4c0,0.2-0.2,0.7-0.6,1.4c-1.4,1.9-3.4,4.7-5.8,8.4
		c-1.7,2.7-3.3,5.1-4.7,7.1c-1.4,2-3,4-4.8,5.9c-1.6,1.6-3.7,2.4-6.3,2.4C445.1,57.2,444,56.3,443.9,54.4z M454.3,22.8
		c0-0.3,0-0.6,0.1-0.9c0.2-0.8,0.5-1.3,0.8-1.7c0.3-0.3,0.7-0.5,1.4-0.6c0.5,0,0.9,0.1,1.2,0.3c0.3,0.3,0.5,0.7,0.5,1.2
		c0,0.2,0,0.4-0.1,0.6c-0.1,0.6-0.4,1.1-1,1.5c-0.6,0.4-1.2,0.6-1.8,0.6C454.6,23.9,454.3,23.5,454.3,22.8z"/>
	<path class="st0" d="M473.8,48.6c2.7-3.5,5.2-7,7.6-10.7c0.2-0.4,0.4-0.7,0.6-0.9c0.1-0.2,0.2-0.3,0.3-0.4c0,0,1.1-1.4,3.2-4.2
		c0.3-0.4,0.6-0.7,0.9-0.9c0.3-0.2,0.6-0.2,0.8,0c0.1,0.1,0.2,0.3,0.2,0.4c0,0.2-0.2,0.7-0.6,1.4c-1,1.3-2.1,2.8-3.1,4.5
		c-1.1,1.7-1.8,2.8-2.2,3.4c-1.8,2.9-3.3,5.3-4.7,7.2c-1.3,1.9-2.9,3.7-4.8,5.5c-1,1.1-2.1,1.8-3.2,2.4c-1.1,0.5-2.2,0.8-3.3,0.8
		c-1.3,0-2.5-0.4-3.5-1.3c-1-0.8-1.6-2-1.8-3.6c-0.1-1-0.1-1.7-0.1-2.2c0-1.8,0.3-3.6,0.8-5.5l0.4-1.6c1.7-6.1,3.2-11.1,4.5-14.8
		c0.2-0.5,1.1-2.7,2.5-6.6c1.2-3.5,2.1-5.7,2.4-6.5c1-2.4,2.4-3.5,4.2-3.5c1.2,0,1.8,0.6,1.8,1.9c0,0.6-0.4,2.3-1.2,4.9
		s-1.3,4.3-1.5,4.9l-0.6,1.9l-1.8,6.2c-0.5,1.6-1.1,3.7-1.9,6.3c-0.8,2.6-1.4,4.9-2,6.7c-1.2,3.6-1.7,6.1-1.7,7.6
		c0,1.2,0.3,2,0.9,2.4C468.8,54.1,471.1,52.1,473.8,48.6z"/>
	<path class="st0" d="M480.6,56c-0.4-0.3-0.5-0.8-0.3-1.4c0.1-0.7,0.5-1.4,1.1-2.1c0.6-0.7,1.3-1.1,1.9-1.1c0.5,0,1,0.2,1.5,0.7
		c0.5,0.5,0.7,1,0.6,1.5c-0.1,0.7-0.5,1.3-1.1,1.9c-0.6,0.5-1.3,0.8-2.1,0.9C481.6,56.4,481,56.3,480.6,56z"/>
	<path class="st0" d="M499.9,57.2c-1.6,0.6-3.2,0.9-4.6,0.9c-2.3,0-4.2-0.6-5.7-1.9s-2.3-3-2.3-5.3c0-2.1,0.6-4.4,1.7-7.1
		c1.2-2.7,2.7-5.2,4.5-7.5c1.9-2.3,3.8-3.9,5.8-4.9c2.8-1.3,5.4-2,7.8-2.1c1.2,0,1.9,0.2,2.3,0.5c0.4,0.4,0.6,1.1,0.7,2.3
		c0.2,1.8-0.3,3.6-1.5,5.6c-0.5,0.7-1,1.1-1.4,1c-0.4-0.1-0.6-0.3-0.6-0.7c0-0.2,0.1-0.5,0.2-0.8c0.5-1,0.7-2.1,0.7-3.4
		c0-0.4,0-1-0.1-1.9c-0.1-0.8-0.5-1.2-1.2-1.2c-0.4,0-0.8,0.1-1.2,0.3c-2.4,1.1-4.2,2.6-5.5,4.6c-1.7,2.7-3,5.3-4,7.8
		c-1,2.5-1.5,4.9-1.7,7.3l-0.1,0.7c0,0.2,0,0.6,0.1,1.1c0,0.5,0.4,0.9,1.1,1.2c0.7,0.3,1.5,0.4,2.4,0.4c1.3,0,2.6-0.2,3.7-0.7
		c2.9-1.9,5.6-4.1,8.1-6.6c2.4-2.5,5.4-6,8.9-10.4c0,0,1.1-1.4,3.2-4.2c0.3-0.4,0.6-0.7,0.9-0.9c0.3-0.2,0.6-0.2,0.8,0
		c0.1,0.1,0.2,0.3,0.2,0.4c0,0.2-0.2,0.7-0.6,1.4l-1.3,1.7c-3.4,4.4-6.4,8.2-9,11.3c-2.6,3.1-5.3,5.8-7.8,8.1
		C503.1,55.7,501.5,56.6,499.9,57.2z"/>
	<path class="st0" d="M520.1,57.2c-2.3,0-4.1-0.6-5.3-1.8c-1.2-1.2-1.8-2.9-1.8-5.2c0-0.9,0-1.6,0.1-2.1c0.7-4.7,2.2-9.2,4.5-13.5
		c0.9-1.5,2.2-3.2,4-5.1l2-2.3c0.5-0.6,1-1,1.6-1.2c0.6-0.2,1.4-0.5,2.6-0.8c1.2-0.3,2.3-0.4,3.3-0.4c2.1,0,3.9,0.6,5.3,1.7
		c1.4,1.2,2.2,2.8,2.3,5c0.1,3.9-0.2,7.9-1.2,11.8c1.3,0,2.5-0.4,3.6-1.3c1.1-0.8,2.4-2.2,3.9-4.2l4.5-5.4c0.3-0.4,0.6-0.7,0.9-0.9
		c0.3-0.2,0.6-0.2,0.8,0c0.1,0.1,0.2,0.3,0.2,0.5c0,0.4-0.2,0.9-0.6,1.6c-0.9,1.1-2.3,2.8-4.2,5.1c-0.8,1-1.2,1.4-1.2,1.4
		c-1.4,1.8-2.8,3.1-4.1,4.1s-3,1.4-5.2,1.4c-1.6,3.2-3.6,5.7-5.8,7.7c-2.3,1.9-4.8,3.2-7.5,3.6C522,57.1,521.1,57.2,520.1,57.2z
		 M527.3,52.4c1.5-1.1,2.9-2.5,4.2-4.3c0.4-0.5,0.6-0.9,0.6-1.2c0-0.4-0.4-0.6-1.2-0.7c-2.2-0.1-4.1-0.6-5.7-1.3
		c-1.6-0.7-3-1.8-4.2-3.4c-0.6,2.1-1.1,3.8-1.4,5.1c-0.3,1.3-0.4,2.6-0.4,3.8c0,0.7,0.1,1.4,0.2,2.2c0.2,1.3,0.9,1.9,2.1,1.9
		c0.3,0,0.5,0,0.7-0.1C524.1,54.2,525.8,53.5,527.3,52.4z M531.1,44.8c1.4,0,2.4-0.4,3-1.2c0.6-0.8,1.1-2.2,1.5-4.2
		c0.4-1.2,0.6-2.6,0.6-4.2c0-0.6,0-1.6-0.1-3c-0.1-1-0.1-1.7-0.1-2.1c-0.2-1.9-1.1-3.1-2.8-3.8c-0.6-0.2-1.2-0.4-1.8-0.4
		c-1.2,0-2.7,0.4-4.4,1.2c-0.8,0.4-1.3,0.9-1.5,1.4c-0.2,0.5-0.3,1.2-0.4,2.3c0,0.3-0.2,0.7-0.5,1.1c-0.3,0.5-0.4,0.8-0.5,1.1
		c-0.5,1.2-0.8,2.5-0.8,4c0,1.8,0.4,3.3,1.3,4.7c0.9,1.4,2.1,2.2,3.6,2.6C529.2,44.7,530.1,44.8,531.1,44.8z"/>
	<path class="st0" d="M577.2,61.4c-1,0-1.7-0.3-2.1-0.8c-0.5-0.5-0.7-1.3-0.8-2.3c0-1.5,0.3-3,0.7-4.6c0.4-1.6,1-3.4,1.7-5.5
		l0.5-1.4c1.8-4.9,3.8-9.6,6-13.9c0.1-0.2,0.4-0.7,0.8-1.5c0.4-0.8,0.6-1.4,0.6-1.9c0-0.4-0.1-0.7-0.4-0.8c-0.3-0.1-0.5-0.1-0.6-0.1
		c-0.4,0-0.9,0.2-1.3,0.5c-0.4,0.4-0.9,0.8-1.3,1.3c-0.4,0.5-0.8,0.8-1,1.1c-3.9,4.2-7.2,7.9-9.6,11.3c-1.2,1.5-2.1,2.7-2.7,3.4
		c-1.2,1.2-2.8,1.8-4.7,1.7c-0.8-0.1-1.2-0.4-1.4-0.8c-0.2-0.5-0.3-1.1-0.4-2.1c0-0.3,0.4-2.1,1.4-5.3c1.8-5.4,2.5-8.2,2.1-8.4
		c0,0-0.1-0.1-0.3-0.1c-0.3,0-0.6,0.1-0.8,0.4c-2.9,3.2-5.3,5.9-7.2,8.2c-1.9,2.3-3.5,4.8-4.9,7.4c-0.7,1.2-1.2,2-1.7,2.6
		c-0.1,0.3-0.3,0.6-0.6,1s-0.5,0.8-0.8,1.3c-0.5,0.8-1,1.3-1.7,1.5c-0.6,0.3-1.3,0.4-2.2,0.4c-1.6,0.1-2.4-0.6-2.4-2.1
		c0-1.3,0.1-2.3,0.2-3c0.8-3.5,1.6-6.6,2.4-9.4c0.8-2.8,1.8-5.5,2.9-8.1c0.1-0.2,0.5-1,1.3-2.4c0.7-1.1,1.4-1.6,2.2-1.6
		c0.9,0,1.3,0.6,1.2,1.7c0,0.5-0.1,1.2-0.1,2.3c0,1-0.2,2-0.4,2.8c-0.3,1.6-0.7,3.7-1.2,6.2l-0.6,3.1c0.1,0,0.3,0,0.6,0.1
		c1.2-1.2,2.9-3,4.9-5.5l1.2-1.5l5.7-6.2c0.5-0.7,1.2-1.2,1.9-1.6c0.7-0.4,1.4-0.6,2.1-0.6c0.9,0,1.5,0.4,1.9,1.3
		c0.3,0.8,0.4,1.6,0.4,2.4c0,0.6-0.1,1.2-0.2,1.9l-0.6,2.7c-0.3,0.8-0.5,1.6-0.6,2.4c0,0.3-0.1,0.7-0.3,1.2
		c-0.1,0.5-0.2,0.9-0.2,1.2c0,0.6,0.1,1.1,0.4,1.4c1.1-0.8,2.4-2.2,4-4c0.9-1,1.3-1.5,1.2-1.4l5.1-5.7c1.1-1.1,2.1-2,3-2.7
		c1.5-1.2,2.8-1.7,4-1.7c0.4,0,0.9,0.1,1.5,0.4c1.2,0.6,1.9,1.6,1.9,3c0,0.5-0.1,1.1-0.2,1.7c-0.4,1.7-1.3,4.5-2.6,8.4
		c-0.3,0.9-1.3,3.7-3,8.5l-1.1,3c-0.2,0.8-0.4,1.2-0.5,1.4c-0.5,1.2-0.7,1.9-0.7,2.4c0,0.4,0.1,0.6,0.4,0.6c1.2-0.1,2.6-1.2,4.2-3.2
		c1.6-2,3.8-5.2,6.5-9.4c1.6-2.6,3-4.7,4.2-6.4c1.2-1.7,2.3-3.3,3.5-4.6c0.3-0.4,0.6-0.7,0.9-0.9c0.3-0.2,0.6-0.2,0.8,0
		c0.1,0.1,0.2,0.3,0.2,0.4c0,0.2-0.2,0.7-0.6,1.4c-1.1,1.4-2.9,4.2-5.3,8.4c-2.4,3.9-4.3,7.1-6,9.5c-1.6,2.5-3.4,4.7-5.3,6.7
		s-3.6,3.1-5.3,3.4C578,61.4,577.7,61.4,577.2,61.4z"/>
</g>
<g>
</g>
<g>
</g>
<g>
</g>
<g>
</g>
<g>
</g>
<g>
</g>
</svg>
