<svg id="Layer_1" data-name="Layer 1" xmlns="http://www.w3.org/2000/svg" width="2.24in" height="1.04in" viewBox="0 0 161.29 74.8">
  <defs>
    <style>
      .cls-1, .cls-2 {
        font-size: 40px;
        font-family: Jasmine-Regular, Jasmine;
      }

      .cls-1 {
        fill: #fff;
      }

      .cls-2, .cls-7 {
        fill: #f7c241;
      }

      .cls-3 {
        letter-spacing: -0.02em;
      }

      .cls-4 {
        letter-spacing: -0.04em;
      }

      .cls-5 {
        letter-spacing: -0.02em;
      }

      .cls-6 {
        letter-spacing: -0.06em;
      }
    </style>
  </defs>
  <title>Logo</title>
  <g>
    <text class="cls-1" transform="translate(19.13 33)">DESIGNED<tspan x="3.74" y="31">BY SAGE</tspan></text>
    <text class="cls-2" transform="translate(23.33 34)"><tspan class="cls-3">D<tspan class="cls-4" x="18.44" y="0">E</tspan><tspan class="cls-5" x="30.36" y="0">SIGNED</tspan></tspan><tspan class="cls-4" x="1.74" y="31">B</tspan><tspan x="20.3" y="31">Y </tspan><tspan class="cls-6" x="51.98" y="31">S</tspan><tspan class="cls-3" x="64.86" y="31">A</tspan><tspan x="85.5" y="31">GE</tspan></text>
    <path class="cls-7" d="M158.11,69.89h-143c-2.85,0-8,1-10.74,0-.78-.3.61.85.55.14s0-1.38,0-2.06V3.75l-2,1.1h143c2.85,0,8-1,10.74,0,.78.3-.61-.85-.55-.14s0,1.38,0,2.06V71c0,.69,2.9.21,2.9-.78V3.75c0-.32-.69-.32-.86-.32H4c-.59,0-2,.31-2,1.1V71c0,.32.69.32.86.32H156.93C157.87,71.31,160,69.89,158.11,69.89Z"/>
  </g>
</svg>
