<svg id="Layer_1" data-name="Layer 1" xmlns="http://www.w3.org/2000/svg" width="200" height="200" viewBox="0 0 200 200">
  <defs>
    <style>
      .cls-1 {
        fill: #f5edde;
      }
    </style>
  </defs>
  <title>social-media</title>
  <g>
    <path class="cls-1" d="M140,97h-9a5.11,5.11,0,0,0-4.77,5.05v9a4.61,4.61,0,0,0,4.67,4.62c3,0,6.09,0,9.12,0a4.56,4.56,0,0,0,4.6-4.53c0-3.05,0-6.35,0-9.4A4.71,4.71,0,0,0,140,97Z"/>
    <path class="cls-1" d="M100,16H97.59c-47.14,0-85.71,38.51-85.71,85.65l-.16,0A86.18,86.18,0,0,0,50.2,173.11V126.68c1,0,.71.32.91.32H80.26c-.19,0-.3.22-.41.36s-.23.2-.34.35a19.53,19.53,0,0,0-3.59,9.65,34.78,34.78,0,0,0-.07,8.07,20.77,20.77,0,0,0,.65,4,27.06,27.06,0,0,0,3.86,7.75c5.19,7.26,12.34,10.84,21.18,11.09a24.38,24.38,0,0,0,6.09-.78,25.9,25.9,0,0,0,15.56-9.88,25.37,25.37,0,0,0,5.34-16.6,26.71,26.71,0,0,0-4.65-13.86c-.05-.08-.09-.14-.13-.14H153.2v.37c0,13.63.24,27.26.25,40.89a85.75,85.75,0,0,0,32.15-66.67l.06.06A85.86,85.86,0,0,0,100,16Zm1.92,145.86a20.29,20.29,0,1,1,20.44-20.27A20.29,20.29,0,0,1,101.93,161.86Zm51.58-41.17c0,.76-.05,1.31-.08,2.31H153q-16,0-32,0a1.22,1.22,0,0,1-.72-.27,36.08,36.08,0,0,0-5.92-4.08,24.82,24.82,0,0,0-15.51-3,29.91,29.91,0,0,0-15.14,6.85,1.82,1.82,0,0,1-1.32.49c-3.46-.11-6.91-.18-10.37-.26l-13.2-.3-8.58-.2v-16c0-.13.22-.26.23-.39.19-1.34.36-2.71.67-4a12.38,12.38,0,0,1,4.39-7.14,13.81,13.81,0,0,1,3.71-1.8V114h4v.06c0-3.82.06-7.64.07-11.46q0-5.35,0-10.7c0-.38,0-.76,0-1.13,0-.11.09-.28.17-.31.87-.28,1.75-.74,2.68-1,.1,8.28.19,16.57.29,24.57h4s0-.66,0-1.1c0-2.84,0-5.57,0-8.41,0-2.11,0-4.11,0-6.23,0-3.13,0-6.26,0-9.26h2.81a1.71,1.71,0,0,0,0,.25c0,4.43-.08,8.82-.06,13.24,0,3.84-.09,7.64-.09,11.48v.61c2-.07,3-.13,4-.19V89c1,0,1.28,0,1.79,0h43.72c3.25,0,6.5,0,9.75,0a23.66,23.66,0,0,1,5,.33,19.26,19.26,0,0,1,12.63,8.6,21.74,21.74,0,0,1,3.52,12.43C153.58,113.81,153.56,117.25,153.51,120.69Z"/>
    <path class="cls-1" d="M102.4,126.22a15.35,15.35,0,1,0,15,15.71A15.35,15.35,0,0,0,102.4,126.22Z"/>
  </g>
</svg>
