<svg id="Layer_1" data-name="Layer 1" xmlns="http://www.w3.org/2000/svg" width="200" height="200" viewBox="0 0 200 200">
  <defs>
    <style>
      .cls-1 {
        fill: #fff;
      }
    </style>
  </defs>
  <title>social-media</title>
  <g>
    <path class="cls-1" d="M123.14,133.71a11.19,11.19,0,0,0-14.56,8.87,20,20,0,0,0,0,3c0,14.07.2,28.15.2,42.22v1.1a90.92,90.92,0,0,0,22.26-4.9c0-13.07-.1-26.13-.11-39.2A11.09,11.09,0,0,0,123.14,133.71Z"/>
    <path class="cls-1" d="M101.51,18H99.09c-47.14,0-85.71,38.46-85.71,85.61l-.09-.05A86.15,86.15,0,0,0,51.8,175V111h23v74.58a58.64,58.64,0,0,0,11,2.61V111h23v12.91c0,.05,0,.11.13.16.73-.9,1.35-1.79,2.07-2.7a33.9,33.9,0,0,1,9.66-8.65c5.07-2.91,10.32-2.73,15.52-.68,9.75,3.86,15,11.44,16.84,21.5a39,39,0,0,1,.53,7c0,10.29-.18,20.59-.19,30.88A85.5,85.5,0,0,0,186.8,103.5v.11C186.8,56.46,148.65,18,101.51,18Zm-38,81.26A11.28,11.28,0,1,1,74.54,87.77,11.31,11.31,0,0,1,63.47,99.26Z"/>
  </g>
</svg>
