<?xml version="1.0" encoding="utf-8"?>
<!-- Generator: Adobe Illustrator 20.1.0, SVG Export Plug-In . SVG Version: 6.00 Build 0)  -->
<svg version="1.1" id="Layer_1" xmlns="http://www.w3.org/2000/svg" xmlns:xlink="http://www.w3.org/1999/xlink" x="0px" y="0px"
	 width="629.1px" height="118.3px" viewBox="0 0 629.1 118.3" style="enable-background:new 0 0 629.1 118.3;" xml:space="preserve"
	>
<style type="text/css">
	.st0{fill:#F7C241;}
</style>
<g>
	<path class="st0" d="M11.3,83.7c-0.5-0.6-0.7-1.7-0.5-3.2c0-0.7,0.2-1.5,0.5-2.4c4.1-13.9,7.1-28.3,9.2-43.1
		c0.4-2.6,0.9-4.5,1.6-5.8c0.3-0.7,0.8-1.3,1.2-1.8s1-0.7,1.5-0.7c0.5,0,1.1,0.3,1.8,0.8c0.7,0.8,1.1,2.2,1.1,4.3
		c0,1.7,0,3.1-0.1,4.3c-0.1,1.2-0.1,2.2-0.2,3.1l-0.2,2.8c0.7,0,1.2-0.1,1.6-0.5c0.4-0.3,0.7-0.6,1-1c0.3-0.4,0.5-0.7,0.7-0.9
		c2.4-2.9,5.6-5.5,9.7-8c2.3-1.5,4.3-2.2,5.9-2.2c2,0,3.8,1.2,5.5,3.7c2.1,3.2,3.2,6.7,3.2,10.5c0,1.1-0.1,2.3-0.3,3.5
		c-1.1,7.8-3.8,15.9-7.9,24.4c-1.8,3.6-4,6.3-6.5,8c-2.5,1.7-5.4,2.6-8.8,2.6c-1.9,0-4.1-0.3-6.4-0.9c-0.5-0.1-1.1-0.4-1.8-0.8
		c-0.7-0.4-1.4-0.8-2-1.1c-0.3,0.5-0.5,1-0.8,1.2c-0.2,0.3-0.4,0.6-0.5,0.8c-0.9,1.5-1.7,2.4-2.2,2.9c-0.6,0.5-1.3,0.7-2.2,0.7
		l-1.2-0.1C12.7,84.8,11.8,84.4,11.3,83.7z M28,77.6c1.8,0,3.5-0.9,5.2-2.7c1.9-2.3,3.2-4.2,4.1-5.7c5.1-9.2,8.6-17.2,10.6-24
		c0.9-2.5,1.3-4.7,1.3-6.7c0-1.7-0.3-3.3-0.9-4.8c-0.4-0.9-1-1.4-1.8-1.4c-0.4,0-0.9,0.1-1.5,0.3c-3.1,1.2-5.7,2.7-7.9,4.6
		c-3.6,3.2-6.4,6.2-8.4,9c-2,2.8-3,6-3.1,9.5c-0.3,5.1-1.1,10.5-2.5,16.2c-0.3,1.1,0,2.2,0.8,3.4c0.8,1.2,1.7,1.9,2.8,2.1
		C27.2,77.5,27.7,77.6,28,77.6z"/>
	<path class="st0" d="M65.1,85c-0.7,0-1.7-0.1-3.2-0.2c-1.1-0.1-1.8-0.2-2.3-0.2c-1.3-0.1-2.1-0.3-2.6-0.8s-0.8-1.2-0.8-2.2
		c0-0.6,0-1.1,0.1-1.5c0.7-3.2,1.2-5.6,1.6-7.2h0.3c2.1-10.3,3.8-18,4.9-23.1c1.6-7.5,2.9-13.1,3.8-16.8c0.5-1.9,1-3.2,1.6-3.9
		c0.6-0.7,1.4-1.1,2.5-1.1c0.3,0,1.2,0.1,2.7,0.4c1.1,0.2,2.3,0.3,3.4,0.3c1.1,0,2.1,0,3-0.1c0.8-0.1,1.5-0.1,2.2-0.2
		c0.4-0.1,0.9-0.1,1.6-0.2c0.7-0.1,1.5-0.1,2.4-0.1c0.4,0,0.8,0,1.2-0.2c0.4-0.1,0.8-0.1,1.2-0.1H89c0.6,0,1.1,0.1,1.5,0.4
		c0.4,0.3,0.5,0.7,0.5,1.2c0,1.4-1,2.1-3,2.1c-2.8,0.1-4.9,0.2-6.2,0.2l-4.4-0.1c-1,0-1.7,0.2-2.1,0.5c-0.4,0.4-0.7,1-0.8,2
		c-0.1,2.1-0.3,4.4-0.8,7c-0.4,2.6-0.9,5.2-1.4,7.7l-0.7,3.9c-0.1,0.6-0.2,1.3-0.2,2c0,0.5,0.1,0.8,0.3,1c0.2,0.2,0.5,0.2,1,0.2
		l2-0.2c1.3-0.1,2.5-0.3,3.8-0.6l2.1-0.3H81c0.5,0,0.8,0.1,1.1,0.3c0.3,0.2,0.5,0.6,0.5,1c0,0.9-0.7,1.6-2.2,2
		c-3.1,0.7-5.5,1.1-7.4,1.1c-1.7,0-2.6,0.8-2.7,2.4c-0.4,2.7-1.4,6.9-3,12.5L66.2,78c-0.2,0.6-0.3,1.1-0.3,1.4
		c0,0.9,0.8,1.4,2.3,1.3c1.1-0.1,2.1-0.1,3-0.1c0.9,0,1.6,0.1,2.2,0.1h2.5c0.5,0,0.8,0.1,1.1,0.3c0.3,0.2,0.4,0.5,0.4,0.8V82
		c0,0.5-0.2,0.8-0.5,1.1c-0.3,0.3-0.8,0.6-1.5,1c-1.1,0.5-2.6,0.8-4.4,0.8c-0.5,0-1,0-1.7,0c-0.6,0-1.4,0-2.2,0
		C66.6,85,66,85,65.1,85z"/>
	<path class="st0" d="M91.1,81.9c-1.7-2.3-2.6-5.1-2.6-8.3c0-1.7,0.3-3.6,0.8-5.6c0.6-2.3,1.8-4,3.6-5.2s3.9-1.7,6.4-1.6
		c-2.5,1.7-4.3,3.4-5.5,5c-1.2,1.6-1.8,3.4-1.8,5.2c0,1.5,0.4,3.3,1.2,5.2c0.3,0.8,0.7,1.4,1,1.8c1.2,1.8,2.4,2.7,3.6,2.7
		c1.4,0,3.1-1.3,5.1-4c1.6-2,2.6-3.8,2.9-5.3c0.7-3.7,1.1-6.6,1.1-8.8c0-3.5-0.8-6.5-2.4-8.8c-1.1-1.6-2.5-4.2-4.1-7.8l-1-2.1
		c-0.8-1.7-1.2-3.6-1.2-5.5c0-1.7,0.2-3.3,0.7-4.9c0.6-2.4,1.8-4.7,3.8-6.8c1.9-2.1,4.1-3.9,6.5-5.2c2.5-1.3,4.8-2,7.1-2
		c2.2,0,3.9,0.5,5.2,1.6c1.2,1.1,1.8,2.5,1.8,4.4c0,0.9-0.1,1.8-0.4,2.7c-0.9,3.7-2.6,6.7-5.1,9.2c-0.5,0.5-1,0.8-1.4,1
		c-0.4,0.2-0.8,0.1-1.2-0.2c-0.2-0.2-0.3-0.4-0.3-0.6c0-0.3,0.1-0.5,0.3-0.8s0.3-0.5,0.4-0.7c0.9-1.3,1.7-2.5,2.3-3.5
		c0.6-1,1-2.1,1.2-3.2c0.1-0.5,0.2-1.1,0.5-2c0.2-0.9,0.4-1.6,0.4-2.2c0-1.6-0.8-2.7-2.5-3.3c-0.6-0.2-1.1-0.2-1.6,0.1
		c-0.5,0.3-0.9,0.6-1.3,1c-0.4,0.4-0.7,0.7-1,0.9c-1.8,1.4-3,3-3.8,4.7c-0.7,1.7-1.2,3.8-1.5,6.1c-0.3,3.3,0.4,6.3,2,9.2l1.2,2.4
		c1.5,3.1,2.6,5.3,3.5,6.7c1.7,2.7,2.5,5.9,2.5,9.7c0,2.3-0.2,4.6-0.7,6.9c-0.5,2.6-1.8,5-3.8,7.3c-2,2.3-4.3,4.2-7,5.5
		c-2.7,1.4-5.3,2.1-8,2.1c-0.9,0-1.7-0.1-2.6-0.3C93.7,84.3,92.2,83.4,91.1,81.9z"/>
	<path class="st0" d="M123.6,83.3c-0.7-0.4-1.3-0.7-2-1c1.3-0.5,2.2-1.1,2.9-1.8c0.7-0.7,1.1-1.4,1.3-2c0.2-0.6,0.5-1.8,0.8-3.4
		l3-13.2c1.5-6.5,2.6-11.4,3.4-14.6c1.7-7.1,3.5-12.7,5.2-16.8c0.5-1.3,0.8-2.1,0.8-2.5c0-0.3-0.2-0.7-0.5-1.2
		c-0.3-0.5-0.8-1-1.3-1.5c2.9-0.4,5-0.6,6.3-0.6c2.3,0,4.2,0.4,5.8,1.2c-1.5,1.1-2.5,1.8-2.8,2.3c-0.3,0.5-0.6,1.5-0.8,3.2
		c-0.9,6.8-2.2,13.8-4,21c-1.7,7.2-3.8,15-6.4,23.5c-0.1,0.4-0.2,0.9-0.5,1.5c-0.3,0.6-0.4,1.1-0.3,1.4c0.3,2-0.8,3.5-3.1,4.6
		c-0.7,0.4-1.5,0.8-2.3,1.1c-0.8,0.3-1.5,0.5-2.1,0.5c-0.8,0-1.5-0.2-2-0.7C124.8,84,124.3,83.7,123.6,83.3z"/>
	<path class="st0" d="M156.8,85c-2.4,0-4.5-0.7-6.3-2.2c-3-2.7-4.5-6.5-4.5-11.2c0-1.5,0.2-3.1,0.5-5c0.8-4.1,2-8.3,3.7-12.5
		c1.6-4.2,3.7-9,6-14.2c1.5-3.1,4.2-6.7,8.3-10.6c1.5-1.4,3.3-2.5,5.6-3.3c2.3-0.8,4.5-1.2,6.6-1.2c1.7,0,3.3,0.3,4.6,0.9
		c1.8,0.8,3.2,1.9,4.1,3.3c0.9,1.4,1.4,3,1.4,4.9c0,1.7-0.3,3.4-1,5.1c-0.3,0.7-0.6,1.4-0.9,1.9c-0.1,0.1-0.2,0.4-0.5,0.9
		c-0.3,0.5-0.6,0.8-1,1c-0.3,0.2-0.7,0.3-1.1,0.2c-0.4-0.1-0.6-0.4-0.6-0.7c0-0.2,0.1-0.5,0.2-0.9c0.2-0.4,0.3-0.6,0.4-0.8
		c0.9-2.4,1.4-4.6,1.4-6.6c0-1-0.1-1.9-0.3-2.8c-0.3-0.9-0.6-1.6-1-2c-0.4-0.4-1-0.7-1.8-0.7c-0.5,0-1.4,0.2-2.5,0.5
		c-2.5,0.9-4.6,2.5-6.4,4.9c-0.3,0.4-0.8,1.2-1.8,2.3c-0.9,1.2-1.6,2.3-2.1,3.4c-3.5,6.9-6.3,13.3-8.4,19
		c-2.1,5.8-3.3,11.5-3.7,17.2c-0.1,0.8-0.2,1.5-0.2,2c0,1.5,0.5,2.4,1.5,2.7c0.7,0.1,1.4,0,2.1-0.4c0.7-0.4,1.3-0.8,1.9-1.3
		c0.6-0.5,1-0.8,1.2-0.9c2.6-2,4.9-4.3,6.9-6.8s4-5.6,6-9c-0.8-0.3-2-0.4-3.6-0.4c-1.3-0.1-2.4-0.2-3.2-0.4
		c-0.8-0.2-1.5-0.7-2.1-1.4c2.2-0.7,4.7-1.1,7.6-1.1c1.2,0,3.1,0.1,5.6,0.2c0.7,0,1.1,0.3,1.1,1c0,0.5-0.1,1-0.4,1.5
		c-2.9,5-5.6,9.2-8.2,12.7c-2.6,3.4-5.7,6.5-9.3,9.2C160.9,84.4,159,85,156.8,85z"/>
	<path class="st0" d="M212.2,82.5c0.2-1.3,0.3-2.6,0.3-3.9c0-3.1-0.6-6.9-1.9-11.4l-1-4.2c-0.7-3.7-1.9-8.2-3.4-13.4l-1.6-5.8
		c-0.1-0.1-0.1-0.3-0.2-0.6c0-0.3-0.2-0.5-0.4-0.8c-0.2-0.2-0.6-0.4-1-0.5c-0.1,0.9-0.4,2.1-0.8,3.7c-0.5,2.4-0.9,4.2-1,5.4
		c-0.3,2.8-0.8,5.5-1.5,8.2c-0.7,2.7-1.7,6.3-3,10.9c-1.2,4.1-2.1,7.2-2.6,9.3c-0.8,3.1-3,4.6-6.6,4.6c-1,0-1.7-0.2-2.2-0.5
		c-0.5-0.4-0.7-1-0.7-1.8c0-0.3,0.1-0.9,0.2-1.7c0.7-4.4,1.9-9.7,3.4-15.8c0.8-3.5,1.4-6.1,1.7-7.8c1.1-5.1,2-9,2.7-11.7
		c0.7-2.7,1.5-5.5,2.6-8.4c1.2-3.6,2.3-6.3,3.2-8.1c0.6-1,1.2-1.8,1.8-2.4c0.6-0.6,1.4-0.8,2.3-0.8c0.7,0,1.1,0.2,1.4,0.5
		c0.3,0.4,0.5,0.8,0.5,1.2c0.1,0.4,0.2,0.7,0.2,0.8c1,3.8,2.4,8.8,4.3,14.9c3,9.7,5.1,17.3,6.2,22.6c0.1,0.1,0.2,0.2,0.3,0.3
		c0.2,0.1,0.4,0.3,0.7,0.5l1.8-5.3c1.3-3.8,2.6-7.6,4-11.4l1.8-4.7c2.3-6.3,4.3-11.2,6.1-14.8c0.9-1.6,1.6-2.7,2.1-3.2
		c0.7-0.7,1.4-1,2.1-1c1.1,0,1.7,0.7,1.7,2c0,0.4-0.2,1.5-0.5,3.4c-0.9,4.9-2.6,10.6-4.9,17.3c-1.5,4.2-3.3,10.5-5.6,18.9
		c-1.3,4.5-2.4,8.5-3.4,11.9c-1.2,4-3.4,6-6.7,6C212.8,85,211.9,84.2,212.2,82.5z"/>
	<path class="st0" d="M241.3,85c-0.7,0-1.7-0.1-3.2-0.2c-1.1-0.1-1.8-0.2-2.3-0.2c-1.3-0.1-2.1-0.3-2.6-0.8s-0.8-1.2-0.8-2.2
		c0-0.6,0-1.1,0.1-1.5c0.7-3.2,1.2-5.6,1.6-7.2h0.3c2.1-10.3,3.8-18,4.9-23.1c1.6-7.5,2.9-13.1,3.8-16.8c0.5-1.9,1-3.2,1.6-3.9
		c0.6-0.7,1.4-1.1,2.5-1.1c0.3,0,1.2,0.1,2.7,0.4c1.1,0.2,2.3,0.3,3.4,0.3c1.1,0,2.1,0,3-0.1c0.8-0.1,1.5-0.1,2.2-0.2
		c0.4-0.1,0.9-0.1,1.6-0.2c0.7-0.1,1.5-0.1,2.4-0.1c0.4,0,0.8,0,1.2-0.2c0.4-0.1,0.8-0.1,1.2-0.1h0.3c0.6,0,1.1,0.1,1.5,0.4
		c0.4,0.3,0.5,0.7,0.5,1.2c0,1.4-1,2.1-3,2.1c-2.8,0.1-4.9,0.2-6.2,0.2l-4.4-0.1c-1,0-1.7,0.2-2.1,0.5c-0.4,0.4-0.7,1-0.8,2
		c-0.1,2.1-0.3,4.4-0.8,7c-0.4,2.6-0.9,5.2-1.4,7.7l-0.7,3.9c-0.1,0.6-0.2,1.3-0.2,2c0,0.5,0.1,0.8,0.3,1c0.2,0.2,0.5,0.2,1,0.2
		l2-0.2c1.3-0.1,2.5-0.3,3.8-0.6l2.1-0.3h0.3c0.5,0,0.8,0.1,1.1,0.3c0.3,0.2,0.5,0.6,0.5,1c0,0.9-0.7,1.6-2.2,2
		c-3.1,0.7-5.5,1.1-7.4,1.1c-1.7,0-2.6,0.8-2.7,2.4c-0.4,2.7-1.4,6.9-3,12.5l-1.1,3.9c-0.2,0.6-0.3,1.1-0.3,1.4
		c0,0.9,0.8,1.4,2.3,1.3c1.1-0.1,2.1-0.1,3-0.1c0.9,0,1.6,0.1,2.2,0.1h2.5c0.5,0,0.8,0.1,1.1,0.3c0.3,0.2,0.4,0.5,0.4,0.8V82
		c0,0.5-0.2,0.8-0.5,1.1c-0.3,0.3-0.8,0.6-1.5,1c-1.1,0.5-2.6,0.8-4.4,0.8c-0.5,0-1,0-1.7,0c-0.6,0-1.4,0-2.2,0
		C242.8,85,242.2,85,241.3,85z"/>
	<path class="st0" d="M265.4,83.7c-0.5-0.6-0.7-1.7-0.5-3.2c0-0.7,0.2-1.5,0.5-2.4c4.1-13.9,7.1-28.3,9.2-43.1
		c0.4-2.6,0.9-4.5,1.6-5.8c0.3-0.7,0.8-1.3,1.2-1.8s1-0.7,1.5-0.7c0.5,0,1.1,0.3,1.8,0.8c0.7,0.8,1.1,2.2,1.1,4.3
		c0,1.7,0,3.1-0.1,4.3c-0.1,1.2-0.1,2.2-0.2,3.1l-0.2,2.8c0.7,0,1.2-0.1,1.6-0.5c0.4-0.3,0.7-0.6,1-1c0.3-0.4,0.5-0.7,0.7-0.9
		c2.4-2.9,5.6-5.5,9.7-8c2.3-1.5,4.3-2.2,5.9-2.2c2,0,3.8,1.2,5.5,3.7c2.1,3.2,3.2,6.7,3.2,10.5c0,1.1-0.1,2.3-0.3,3.5
		c-1.1,7.8-3.8,15.9-7.9,24.4c-1.8,3.6-4,6.3-6.5,8c-2.5,1.7-5.4,2.6-8.8,2.6c-1.9,0-4.1-0.3-6.4-0.9c-0.5-0.1-1.1-0.4-1.8-0.8
		c-0.7-0.4-1.4-0.8-2-1.1c-0.3,0.5-0.5,1-0.8,1.2c-0.2,0.3-0.4,0.6-0.5,0.8c-0.9,1.5-1.7,2.4-2.2,2.9c-0.6,0.5-1.3,0.7-2.2,0.7
		l-1.2-0.1C266.8,84.8,265.9,84.4,265.4,83.7z M282.1,77.6c1.8,0,3.5-0.9,5.2-2.7c1.9-2.3,3.2-4.2,4.1-5.7c5.1-9.2,8.6-17.2,10.6-24
		c0.9-2.5,1.3-4.7,1.3-6.7c0-1.7-0.3-3.3-0.9-4.8c-0.4-0.9-1-1.4-1.8-1.4c-0.4,0-0.9,0.1-1.5,0.3c-3.1,1.2-5.7,2.7-7.9,4.6
		c-3.6,3.2-6.4,6.2-8.4,9c-2,2.8-3,6-3.1,9.5c-0.3,5.1-1.1,10.5-2.5,16.2c-0.3,1.1,0,2.2,0.8,3.4c0.8,1.2,1.7,1.9,2.8,2.1
		C281.3,77.5,281.8,77.6,282.1,77.6z"/>
	<path class="st0" d="M332.9,84c-0.7-0.5-1-1.3-0.9-2.4c0-1.9,0.2-3.8,0.7-5.7c1.2-5.4,2.6-11.1,4.3-17.1c1.7-6,2.7-9.7,3.1-11
		c2.5-8.8,4.4-15.4,5.5-19.9c0.2-0.7,0.6-1.8,1.3-3.3c0.1-0.1,0.2-0.4,0.4-0.8c0.2-0.4,0.4-0.7,0.8-1c0.3-0.3,0.6-0.4,0.9-0.4
		c0.9,0,1.5,0.5,2,1.4c0.3,0.7,0.5,1.3,0.6,2c0.1,0.7,0.1,1.4,0.1,2c0,0.6,0,1,0,1.2c0,0.7-0.1,1.4-0.2,2.3
		c-0.1,0.9-0.2,1.5-0.3,1.8c-0.4,2.1-0.6,3.8-0.6,4.9c0,1,0.1,1.8,0.2,2.3c1.1-0.7,1.9-1.6,2.6-2.5c0.7-0.9,1.1-1.6,1.4-1.9
		c4.3-5.5,9.5-10.1,15.6-13.6c2.6-1.5,5-2.3,7.3-2.3c2.1,0,3.8,0.7,5,2c1.2,1.4,1.9,3.2,1.9,5.7c0,2.8-0.7,5.4-2.1,7.9
		c-1.4,2.5-3.4,5.1-6,7.9c-0.5,0.6-2.2,2.3-5.1,5.2l-2.1,2.1l1.9,2.1c0.7,0.7,1.4,1.4,2.1,2.3c1.6,2.1,2.4,4.6,2.4,7.6
		c0,2.7-0.6,5.3-1.9,8c-1.3,2.7-3.1,5.2-5.4,7.4c-2.3,2.2-5,3.9-7.9,5c-1.8,0.7-3.6,1-5.4,1c-0.8,0-1.7-0.1-2.7-0.2
		c-1-0.1-1.6-0.2-2-0.3c-2.5-0.5-5.1-1.5-7.8-3c-0.7,0.1-1.2,0.3-1.4,0.8s-0.3,0.8-0.4,0.9c-1.3,1.9-3,2.7-5,2.5
		C334.5,84.8,333.6,84.5,332.9,84z M368.3,66.7c1-1.1,1.8-2.6,2.4-4.6c0.4-1.1,0.6-2.2,0.6-3.2c0-1.9-0.7-3.4-2.2-4.6
		c-0.6-0.5-1.4-0.8-2.3-0.8c-1.4,0-3.2,0.7-5.4,2.2c-4.3,2.6-7.8,4.3-10.5,5.2c-1.6,0.5-2.7,0.8-3.2,1.1c-0.6,0.3-1,0.6-1.2,1.1
		c-0.2,0.5-0.5,1.5-1,3l-1.7,6.7c-0.1,0.5-0.2,0.9-0.2,1.2c0,0.5,0.1,0.9,0.4,1.4c1.4,2.1,3.5,3.1,6.3,3.1c1.7,0,3.4-0.4,5.1-1.2
		C360.3,74.9,364.6,71.4,368.3,66.7z M357,48.5l2.6-1.7c5.7-3.6,11.1-8.2,16.1-13.8c2-2.2,3.3-4.3,3.9-6.3c0.2-0.7,0.3-1.3,0.3-1.8
		c0-1-0.6-1.5-1.7-1.5c-1.5,0-3,0.4-4.5,1.1c-1.5,0.7-3.1,1.7-4.8,2.9c-3.5,2.5-6.6,5.3-9.3,8.4c-2.8,3.1-5.9,7.1-9.5,11.8
		c-1.1,1.4-1.6,2.9-1.6,4.5c0,0.5,0,0.9,0.1,1.2C350.6,52.5,353.4,50.9,357,48.5z"/>
	<path class="st0" d="M399.7,85c-3.7,0-7-1.4-9.9-4.1c-1.3-1.1-1.9-2.5-2-4v-0.3c0-0.8,0.3-1.4,1-1.8c0.5-0.3,0.9-0.4,1.2-0.4
		c0.4,0,0.7,0.2,0.9,0.5c0.2,0.3,0.4,0.6,0.7,1.1c0.2,0.4,0.4,0.8,0.5,1c0.1,0.2,0.5,0.7,1.1,1.6c0.6,0.9,1.3,1.6,2.2,2.1
		c1.3,0.8,2.6,1.2,3.9,1.2c1.8,0,3.9-0.8,6.2-2.5c1.6-1.1,3-2.4,4.2-3.9c1.2-1.5,2.5-3.3,3.9-5.6c1.7-2.7,3.2-5.6,4.4-8.6
		c1.2-3,2.2-6.4,3.2-10.2c-1.3,0.9-2.9,2.3-4.9,4.2c-2.1,1.9-3.8,3.3-5.1,4.1c-2.3,1.6-4.6,2.5-7,2.8c-1.3,0.1-2.3,0.2-2.9,0.2
		c-4.1,0-7.3-1-9.5-3s-3.3-4.9-3.3-8.6c0-1.4,0.1-2.7,0.4-4c1.1-6.1,2.9-11.4,5.4-15.7c0.7-1.3,1.5-2.2,2.3-2.7
		c0.8-0.5,1.7-0.8,2.8-0.8c0.5,0,0.8,0,1.1,0.1c1,0.1,1.8,0.4,2.2,0.8c0.5,0.4,0.8,1,0.8,1.8c0,0.6-0.1,1.3-0.4,2
		c-0.5,1.4-1,3.5-1.5,6.3c-0.5,2.9-1.1,5.2-1.6,6.7c-0.7,2.3-1.1,4.5-1.1,6.4c0,1.8,0.3,3.4,0.8,4.7c0.8,1.9,1.9,2.9,3.4,2.9
		c1,0,2.3-0.5,4-1.4c8-4.5,14.7-11.4,20.2-20.9c0.4-0.7,0.9-1.7,1.6-3.2c0.8-1.7,2-2.5,3.5-2.5c1.9,0,2.8,0.8,2.8,2.4
		c-0.1,2.9-0.4,5-0.7,6.5c-1.7,7.4-4.7,15.5-8.9,24.4c-3.8,8.1-8.9,13.9-15.4,17.3C406.5,84,403,85,399.7,85z"/>
	<path class="st0" d="M460,81.9c-1.7-2.3-2.6-5.1-2.6-8.3c0-1.7,0.3-3.6,0.8-5.6c0.6-2.3,1.8-4,3.6-5.2s3.9-1.7,6.4-1.6
		c-2.5,1.7-4.3,3.4-5.5,5c-1.2,1.6-1.8,3.4-1.8,5.2c0,1.5,0.4,3.3,1.2,5.2c0.3,0.8,0.7,1.4,1,1.8c1.2,1.8,2.4,2.7,3.6,2.7
		c1.4,0,3.1-1.3,5.1-4c1.6-2,2.6-3.8,2.9-5.3c0.7-3.7,1.1-6.6,1.1-8.8c0-3.5-0.8-6.5-2.4-8.8c-1.1-1.6-2.5-4.2-4.1-7.8l-1-2.1
		c-0.8-1.7-1.2-3.6-1.2-5.5c0-1.7,0.2-3.3,0.7-4.9c0.6-2.4,1.8-4.7,3.8-6.8c1.9-2.1,4.1-3.9,6.5-5.2c2.5-1.3,4.8-2,7.1-2
		c2.2,0,3.9,0.5,5.2,1.6c1.2,1.1,1.8,2.5,1.8,4.4c0,0.9-0.1,1.8-0.4,2.7c-0.9,3.7-2.6,6.7-5.1,9.2c-0.5,0.5-1,0.8-1.4,1
		c-0.4,0.2-0.8,0.1-1.2-0.2c-0.2-0.2-0.3-0.4-0.3-0.6c0-0.3,0.1-0.5,0.3-0.8s0.3-0.5,0.4-0.7c0.9-1.3,1.7-2.5,2.3-3.5
		c0.6-1,1-2.1,1.2-3.2c0.1-0.5,0.2-1.1,0.5-2c0.2-0.9,0.4-1.6,0.4-2.2c0-1.6-0.8-2.7-2.5-3.3c-0.6-0.2-1.1-0.2-1.6,0.1
		c-0.5,0.3-0.9,0.6-1.3,1c-0.4,0.4-0.7,0.7-1,0.9c-1.8,1.4-3,3-3.8,4.7c-0.7,1.7-1.2,3.8-1.5,6.1c-0.3,3.3,0.4,6.3,2,9.2l1.2,2.4
		c1.5,3.1,2.6,5.3,3.5,6.7c1.7,2.7,2.5,5.9,2.5,9.7c0,2.3-0.2,4.6-0.7,6.9c-0.5,2.6-1.8,5-3.8,7.3c-2,2.3-4.3,4.2-7,5.5
		c-2.7,1.4-5.3,2.1-8,2.1c-0.9,0-1.7-0.1-2.6-0.3C462.6,84.3,461.1,83.4,460,81.9z"/>
	<path class="st0" d="M524.4,79.7c0-1.3,0.2-2.7,0.5-4.3c0.3-1.6,0.6-2.7,0.7-3.2c0.1-0.7,0.2-1.1,0.2-1.4c0-1.4-0.9-2.1-2.8-2
		l-5.8,0.3c-3.9,0.1-7.8,0.3-11.7,0.6c-1.1,0.1-2,0.5-2.5,1c-0.5,0.5-0.9,1.4-1.2,2.5c-0.1,0.5-0.3,1.5-0.5,2.9
		c-0.2,1.4-0.7,2.7-1.3,3.8c-1.3,0-1.9-0.5-1.7-1.5c0-0.5,0-1,0.2-1.6c0.1-0.6,0.2-1.2,0.2-1.7l0.2-2.4c0-0.8-0.2-1.3-0.6-1.6
		c-0.4-0.3-1.4-0.6-2.9-1c-0.1,0-0.2,0-0.5-0.1c-0.3-0.1-0.4-0.2-0.5-0.4c-0.1-0.1-0.1-0.3-0.1-0.5c0.1-0.4,0.2-0.7,0.5-0.9
		c0.3-0.2,0.5-0.3,0.8-0.4c0.3-0.1,0.4-0.1,0.5-0.1c1.5-0.3,2.5-0.6,3-0.9c0.5-0.2,0.9-0.6,1.1-1c0.3-0.5,0.7-1.4,1.2-2.9
		c4.3-12,9.5-22.1,15.5-30.3c1.2-1.6,2.5-3.1,3.9-4.4c3.7-3.3,7.2-4.9,10.6-4.9c2,0,3.8,0.6,5.3,1.8c1.5,1.2,2.7,3,3.4,5.2
		c0.2,0.9,0.3,1.9,0.3,3.1c0,1,0,1.8-0.1,2.3c-1.9,17.3-3.2,30.3-4.1,39c-0.3,1.7-0.9,4.1-1.8,7.2c-0.4,2.1-2,3.1-4.9,3.1
		C526,85,524.4,83.2,524.4,79.7z M522.6,65.5c1.5,0,2.5-0.1,3-0.2c0.6-0.2,1-0.5,1.2-1.2c0.3-0.6,0.5-1.7,0.8-3.2
		c0.8-5.4,1.5-9.4,2.1-11.9c1.2-4.9,2.5-11,3.8-18.2c0.2-0.8,0.3-1.5,0.3-2.1c0-1.6-0.7-2.4-2.2-2.4c-0.8,0-1.8,0.2-3,0.6
		c-1.7,0.6-3.2,1.5-4.5,2.6c-1.3,1.1-2.6,2.5-4,4.1c-2.9,3.6-5.3,7.3-7.3,11.1c-2,3.8-4.2,8.3-6.5,13.6l-1.2,2.6
		c-0.8,2.4-1.2,3.9-1.2,4.4c0,0.8,0.6,1.2,1.7,1.2c0.7,0,1.3,0,1.8-0.1C511,65.9,516,65.6,522.6,65.5z"/>
	<path class="st0" d="M556.7,85c-2.4,0-4.5-0.7-6.3-2.2c-3-2.7-4.5-6.5-4.5-11.2c0-1.5,0.2-3.1,0.5-5c0.8-4.1,2-8.3,3.7-12.5
		c1.6-4.2,3.7-9,6-14.2c1.5-3.1,4.2-6.7,8.3-10.6c1.5-1.4,3.3-2.5,5.6-3.3c2.3-0.8,4.5-1.2,6.6-1.2c1.7,0,3.3,0.3,4.6,0.9
		c1.8,0.8,3.2,1.9,4.1,3.3c0.9,1.4,1.4,3,1.4,4.9c0,1.7-0.3,3.4-1,5.1c-0.3,0.7-0.6,1.4-0.9,1.9c-0.1,0.1-0.2,0.4-0.5,0.9
		c-0.3,0.5-0.6,0.8-1,1c-0.3,0.2-0.7,0.3-1.1,0.2c-0.4-0.1-0.6-0.4-0.6-0.7c0-0.2,0.1-0.5,0.2-0.9c0.2-0.4,0.3-0.6,0.4-0.8
		c0.9-2.4,1.4-4.6,1.4-6.6c0-1-0.1-1.9-0.3-2.8c-0.3-0.9-0.6-1.6-1-2c-0.4-0.4-1-0.7-1.8-0.7c-0.5,0-1.4,0.2-2.5,0.5
		c-2.5,0.9-4.6,2.5-6.4,4.9c-0.3,0.4-0.8,1.2-1.8,2.3c-0.9,1.2-1.6,2.3-2.1,3.4c-3.5,6.9-6.3,13.3-8.4,19
		c-2.1,5.8-3.3,11.5-3.7,17.2c-0.1,0.8-0.2,1.5-0.2,2c0,1.5,0.5,2.4,1.5,2.7c0.7,0.1,1.4,0,2.1-0.4c0.7-0.4,1.3-0.8,1.9-1.3
		c0.6-0.5,1-0.8,1.2-0.9c2.6-2,4.9-4.3,6.9-6.8s4-5.6,6-9c-0.8-0.3-2-0.4-3.6-0.4c-1.3-0.1-2.4-0.2-3.2-0.4
		c-0.8-0.2-1.5-0.7-2.1-1.4c2.2-0.7,4.7-1.1,7.6-1.1c1.2,0,3.1,0.1,5.6,0.2c0.7,0,1.1,0.3,1.1,1c0,0.5-0.1,1-0.4,1.5
		c-2.9,5-5.6,9.2-8.2,12.7c-2.6,3.4-5.7,6.5-9.3,9.2C560.8,84.4,558.9,85,556.7,85z"/>
	<path class="st0" d="M593.9,85c-0.7,0-1.7-0.1-3.2-0.2c-1.1-0.1-1.8-0.2-2.3-0.2c-1.3-0.1-2.1-0.3-2.6-0.8s-0.8-1.2-0.8-2.2
		c0-0.6,0-1.1,0.1-1.5c0.7-3.2,1.2-5.6,1.6-7.2h0.3c2.1-10.3,3.8-18,4.9-23.1c1.6-7.5,2.9-13.1,3.8-16.8c0.5-1.9,1-3.2,1.6-3.9
		c0.6-0.7,1.4-1.1,2.5-1.1c0.3,0,1.2,0.1,2.7,0.4c1.1,0.2,2.3,0.3,3.4,0.3c1.1,0,2.1,0,3-0.1c0.8-0.1,1.5-0.1,2.2-0.2
		c0.4-0.1,0.9-0.1,1.6-0.2c0.7-0.1,1.5-0.1,2.4-0.1c0.4,0,0.8,0,1.2-0.2c0.4-0.1,0.8-0.1,1.2-0.1h0.3c0.6,0,1.1,0.1,1.5,0.4
		c0.4,0.3,0.5,0.7,0.5,1.2c0,1.4-1,2.1-3,2.1c-2.8,0.1-4.9,0.2-6.2,0.2l-4.4-0.1c-1,0-1.7,0.2-2.1,0.5c-0.4,0.4-0.7,1-0.8,2
		c-0.1,2.1-0.3,4.4-0.8,7c-0.4,2.6-0.9,5.2-1.4,7.7l-0.7,3.9c-0.1,0.6-0.2,1.3-0.2,2c0,0.5,0.1,0.8,0.3,1c0.2,0.2,0.5,0.2,1,0.2
		l2-0.2c1.3-0.1,2.5-0.3,3.8-0.6l2.1-0.3h0.3c0.5,0,0.8,0.1,1.1,0.3c0.3,0.2,0.5,0.6,0.5,1c0,0.9-0.7,1.6-2.2,2
		c-3.1,0.7-5.5,1.1-7.4,1.1c-1.7,0-2.6,0.8-2.7,2.4c-0.4,2.7-1.4,6.9-3,12.5L595,78c-0.2,0.6-0.3,1.1-0.3,1.4c0,0.9,0.8,1.4,2.3,1.3
		c1.1-0.1,2.1-0.1,3-0.1c0.9,0,1.6,0.1,2.2,0.1h2.5c0.5,0,0.8,0.1,1.1,0.3c0.3,0.2,0.4,0.5,0.4,0.8V82c0,0.5-0.2,0.8-0.5,1.1
		c-0.3,0.3-0.8,0.6-1.5,1c-1.1,0.5-2.6,0.8-4.4,0.8c-0.5,0-1,0-1.7,0c-0.6,0-1.4,0-2.2,0C595.4,85,594.8,85,593.9,85z"/>
</g>
<g>
</g>
<g>
</g>
<g>
</g>
<g>
</g>
<g>
</g>
<g>
</g>
</svg>
